<?xml version="1.0" encoding="UTF-8"?>
<svg width="165px" height="84px" viewBox="0 0 165 84" version="1.1" xmlns="http://www.w3.org/2000/svg" xmlns:xlink="http://www.w3.org/1999/xlink">
    <!-- Generator: sketchtool 42 (36781) - http://www.bohemiancoding.com/sketch -->
    <title>55508AE0-5201-44FD-AE53-1602959D3E38</title>
    <desc>Created with sketchtool.</desc>
    <defs>
        <polygon id="path-1" points="2.07470786e-20 0.221997219 2.07470786e-20 17.7375357 43.7117605 17.7375357 43.7117605 0.221997219 0 0.221997219"></polygon>
        <polygon id="path-3" points="2.07470786e-20 0.221997219 2.07470786e-20 17.7375357 43.7117605 17.7375357 43.7117605 0.221997219 0 0.221997219"></polygon>
        <polygon id="path-5" points="2.07470786e-20 0.221997219 2.07470786e-20 17.7375357 43.7117605 17.7375357 43.7117605 0.221997219 0 0.221997219"></polygon>
        <polygon id="path-7" points="0.278467425 17.2268923 13.4047827 17.2268923 13.4047827 0.370990696 0.278467425 0.370990696 0.278467425 17.2268923"></polygon>
    </defs>
    <g id="Symbols" stroke="none" stroke-width="1" fill="none" fill-rule="evenodd">
        <g id="Header" transform="translate(-105.000000, 0.000000)">
            <g id="Logo">
                <g transform="translate(105.000000, 0.000000)">
                    <g id="Group-3" transform="translate(0.000000, 61.349155)">
                        <mask id="mask-2" fill="white">
                            <use xlink:href="#path-1"></use>
                        </mask>
                        <g id="Clip-2"></g>
                        <path d="M41.243242,9.46097097 C42.4595136,8.86338922 43.7117605,7.77082143 43.7117605,5.25416387 C43.7117605,4.07967264 43.2988099,3.00739429 42.5819827,2.17399553 C41.470958,0.880447325 39.5830198,0.221997219 37.130958,0.221997219 L26.9334889,0.221997219 L24.3646988,3.43385558 L37.6969951,3.43385558 C38.6687111,3.43385558 38.9538346,3.71446252 39.1857605,4.06971932 C39.4861926,4.52412646 39.4528963,5.12477077 39.329279,5.74187633 C39.0717111,7.02853378 38.3812914,7.50629292 37.4206741,7.50629292 L35.8618716,7.50629292 C35.9701802,7.04499503 36.4229333,5.13242717 36.4229333,5.13242717 L31.449921,5.13242717 L29.2630815,14.5214663 L28.5141062,14.5214663 C27.7494395,14.5214663 27.6185506,14.1045755 27.7563284,13.5284317 C28.4934395,10.4417554 29.7269333,5.12132539 29.7269333,5.12132539 L23.0271062,5.12132539 C23.0271062,5.12132539 19.9749457,8.94952368 19.0231309,10.1339682 C19.3974272,8.50928088 21.3508099,0.221997219 21.3508099,0.221997219 L15.9962296,0.221997219 C15.1994148,2.67510668 12.9838716,7.3416804 11.2478716,9.46288507 C9.85019259,11.1706443 8.3457358,12.28465 6.77927901,12.7788704 C3.91235309,13.6777314 1.20501975,11.8398134 1.20501975,11.8398134 L-0.000153086419,16.995248 L0.211871605,17.0553507 C2.77147654,17.804912 5.1527358,17.9373676 7.28484691,17.4481239 C8.99558765,17.0549679 10.5490321,16.2632965 11.9038469,15.0968445 C12.9823407,14.1681236 13.7504519,13.1666669 14.2728593,12.3466668 C13.7959951,14.3204859 12.9693284,17.7375357 12.9693284,17.7375357 L15.2774889,17.7375357 C18.0288346,17.7375357 18.9018099,16.9695991 20.8548099,14.5272086 C20.8548099,14.5272086 22.857563,11.9944726 23.2464025,11.5125024 C23.1105383,12.0985996 22.9153531,13.0016716 22.6267852,14.2588519 C22.0906,16.5867793 23.3742296,17.7375357 25.8423654,17.7375357 L33.4817605,17.7375357 C33.4817605,17.7375357 35.0306123,11.0703455 35.1113654,10.7304015 L37.2802173,10.7304015 C39.0896988,10.7304015 38.8041926,12.3282915 38.6916741,12.8875913 C38.4187975,14.2542581 37.4838222,14.515724 36.5966864,14.515724 L34.8874765,14.515724 L35.6215259,17.7375357 L39.3208593,17.7375357 C40.5183778,17.7375357 43.6887975,17.1020548 43.6887975,13.240934 C43.6887975,11.4336416 42.5437111,10.16 41.243242,9.46097097" id="Fill-1" fill="#003770" mask="url(#mask-2)"></path>
                    </g>
                    <circle id="Oval-2" fill="#FFFFFF" cx="130" cy="35" r="35"></circle>
                    <path d="M74.9828,73.7029805 C75.1565531,75.8115521 76.6147012,77.2011881 78.7670963,77.2011881 C80.2692568,77.2011881 81.2359975,76.6859126 82.2180469,75.8341385 L83.2104296,76.9776213 C82.1457136,77.9419445 80.8406519,78.7045216 78.8019235,78.7045216 C75.729479,78.7045216 73.5039852,76.7081162 73.2624914,73.7695912 C72.9720099,70.2277421 75.5411827,66.5951648 79.4188617,66.5951648 C82.3569728,66.5951648 84.0700099,68.6141565 84.2690222,71.0343435 C84.3329358,71.8198898 84.2380222,72.5809356 84.0282938,73.3006369 L74.972084,73.3006369 C74.9609852,73.4338582 74.972084,73.5682279 74.9828,73.7029805 L74.9828,73.7029805 Z M82.5693802,71.9094696 C82.5954049,71.6847544 82.6187506,71.415632 82.5881333,71.0343435 C82.4560963,69.4429615 81.4461086,68.052177 79.449479,68.052177 C77.163516,68.052177 75.5794543,69.7783116 75.1037383,71.9094696 L82.5693802,71.9094696 Z" id="Fill-4" fill="#003770"></path>
                    <path d="M84.7925012,75.4748238 C84.5777975,72.8731803 86.6226494,71.2810326 89.6036247,71.2810326 C91.1501802,71.2810326 92.6332049,71.5949448 93.7580074,71.9084743 L93.8215383,71.5949448 C93.8858346,71.2810326 93.8965506,70.8771577 93.8724395,70.5632454 C93.7492049,69.0836468 92.6488963,68.231107 90.5634765,68.231107 C89.3307481,68.231107 88.3398963,68.4562051 87.3406247,68.836728 L86.9073901,67.3793329 C88.0352543,66.9310509 89.2017728,66.6619285 90.7035506,66.6619285 C93.6179333,66.6619285 95.3661802,68.0297438 95.5517975,70.2723023 C95.5896864,70.7435535 95.5491185,71.3262053 95.456884,71.8652156 L94.2490321,78.4344039 L92.5459457,78.4344039 L92.8666617,76.6179238 C91.9148469,77.8506037 90.5485506,78.6809399 88.7092173,78.6809399 C86.759279,78.6809399 84.9624272,77.5366914 84.7925012,75.4748238 M93.4047605,73.8826761 L93.5616741,73.0753091 C92.5298716,72.8065696 91.2114148,72.5596508 89.7754642,72.5596508 C87.7359704,72.5596508 86.4163654,73.6805473 86.5461062,75.2723121 C86.6479086,76.5057576 87.6563654,77.3138903 89.1577605,77.3138903 C91.1076988,77.3138903 93.0117111,75.922723 93.4047605,73.8826761" id="Fill-6" fill="#003770"></path>
                    <path d="M48.2963926,75.4748238 C48.0824543,72.8731803 50.1269235,71.2810326 53.1086642,71.2810326 C54.6556025,71.2810326 56.137479,71.5949448 57.261516,71.9084743 L57.3265778,71.5949448 C57.3904914,71.2810326 57.400442,70.8771577 57.3759481,70.5632454 C57.2538617,69.0836468 56.1531704,68.231107 54.0677506,68.231107 C52.8354049,68.231107 51.8453185,68.4562051 50.8456642,68.836728 L50.4112815,67.3793329 C51.5399111,66.9310509 52.7064296,66.6619285 54.2085901,66.6619285 C57.1229728,66.6619285 58.8716025,68.0297438 59.0556889,70.2723023 C59.0939605,70.7435535 59.0522444,71.3262053 58.9619235,71.8652156 L57.7536889,78.4344039 L56.0490716,78.4344039 L56.3717012,76.6179238 C55.419121,77.8506037 54.0528247,78.6809399 52.2146395,78.6809399 C50.2639358,78.6809399 48.4663185,77.5366914 48.2963926,75.4748238 M56.9082691,73.8826761 L57.0670963,73.0753091 C56.0349111,72.8065696 54.7160716,72.5596508 53.2797383,72.5596508 C51.2402444,72.5596508 49.9198741,73.6805473 50.050763,75.2723121 C50.1525654,76.5057576 51.1610222,77.3138903 52.6624173,77.3138903 C54.6127383,77.3138903 56.5159852,75.922723 56.9082691,73.8826761" id="Fill-8" fill="#003770"></path>
                    <path d="M95.4487704,76.6629052 L96.4771284,75.5420087 C97.8323259,76.7528678 99.2617704,77.2463226 100.65256,77.2463226 C101.975227,77.2463226 103.145573,76.4833627 103.049511,75.3172935 C102.987894,74.5558648 102.425684,73.9950338 100.690832,73.3450057 C98.538437,72.5361074 97.2892519,71.7742959 97.1553012,70.1595619 C96.9937951,68.1868913 98.5671407,66.5955093 101.256104,66.5955093 C102.960721,66.5955093 104.636635,67.3573207 105.669585,68.1868913 L104.758338,69.3755469 C103.729598,68.5903834 102.472375,68.0299352 101.217832,68.0299352 C99.5821037,68.0299352 98.7795481,68.9039129 98.8583877,69.8686188 C98.9207704,70.6319616 99.4328444,71.1250335 101.329202,71.842055 C103.484277,72.6934463 104.628598,73.5233997 104.751449,75.0252019 C104.927881,77.1789463 103.07898,78.6807485 100.612758,78.6807485 C98.8216469,78.6807485 96.9046222,78.0085168 95.4487704,76.6629052" id="Fill-10" fill="#003770"></path>
                    <g id="Group-14" transform="translate(0.000000, 61.349155)">
                        <mask id="mask-4" fill="white">
                            <use xlink:href="#path-3"></use>
                        </mask>
                        <g id="Clip-13"></g>
                        <path d="M41.243242,9.46097097 C42.4595136,8.86338922 43.7117605,7.77082143 43.7117605,5.25416387 C43.7117605,4.07967264 43.2988099,3.00739429 42.5819827,2.17399553 C41.470958,0.880447325 39.5830198,0.221997219 37.130958,0.221997219 L26.9334889,0.221997219 L24.3646988,3.43385558 L37.6969951,3.43385558 C38.6687111,3.43385558 38.9538346,3.71446252 39.1857605,4.06971932 C39.4861926,4.52412646 39.4528963,5.12477077 39.329279,5.74187633 C39.0717111,7.02853378 38.3812914,7.50629292 37.4206741,7.50629292 L35.8618716,7.50629292 C35.9701802,7.04499503 36.4229333,5.13242717 36.4229333,5.13242717 L31.449921,5.13242717 L29.2630815,14.5214663 L28.5141062,14.5214663 C27.7494395,14.5214663 27.6185506,14.1045755 27.7563284,13.5284317 C28.4934395,10.4417554 29.7269333,5.12132539 29.7269333,5.12132539 L23.0271062,5.12132539 C23.0271062,5.12132539 19.9749457,8.94952368 19.0231309,10.1339682 C19.3974272,8.50928088 21.3508099,0.221997219 21.3508099,0.221997219 L15.9962296,0.221997219 C15.1994148,2.67510668 12.9838716,7.3416804 11.2478716,9.46288507 C9.85019259,11.1706443 8.3457358,12.28465 6.77927901,12.7788704 C3.91235309,13.6777314 1.20501975,11.8398134 1.20501975,11.8398134 L-0.000153086419,16.995248 L0.211871605,17.0553507 C2.77147654,17.804912 5.1527358,17.9373676 7.28484691,17.4481239 C8.99558765,17.0549679 10.5490321,16.2632965 11.9038469,15.0968445 C12.9823407,14.1681236 13.7504519,13.1666669 14.2728593,12.3466668 C13.7959951,14.3204859 12.9693284,17.7375357 12.9693284,17.7375357 L15.2774889,17.7375357 C18.0288346,17.7375357 18.9018099,16.9695991 20.8548099,14.5272086 C20.8548099,14.5272086 22.857563,11.9944726 23.2464025,11.5125024 C23.1105383,12.0985996 22.9153531,13.0016716 22.6267852,14.2588519 C22.0906,16.5867793 23.3742296,17.7375357 25.8423654,17.7375357 L33.4817605,17.7375357 C33.4817605,17.7375357 35.0306123,11.0703455 35.1113654,10.7304015 L37.2802173,10.7304015 C39.0896988,10.7304015 38.8041926,12.3282915 38.6916741,12.8875913 C38.4187975,14.2542581 37.4838222,14.515724 36.5966864,14.515724 L34.8874765,14.515724 L35.6215259,17.7375357 L39.3208593,17.7375357 C40.5183778,17.7375357 43.6887975,17.1020548 43.6887975,13.240934 C43.6887975,11.4336416 42.5437111,10.16 41.243242,9.46097097" id="Fill-12" fill="#003770" mask="url(#mask-4)"></path>
                    </g>
                    <path d="M74.9828,73.7029805 C75.1565531,75.8115521 76.6147012,77.2011881 78.7670963,77.2011881 C80.2692568,77.2011881 81.2359975,76.6859126 82.2180469,75.8341385 L83.2104296,76.9776213 C82.1457136,77.9419445 80.8406519,78.7045216 78.8019235,78.7045216 C75.729479,78.7045216 73.5039852,76.7081162 73.2624914,73.7695912 C72.9720099,70.2277421 75.5411827,66.5951648 79.4188617,66.5951648 C82.3569728,66.5951648 84.0700099,68.6141565 84.2690222,71.0343435 C84.3329358,71.8198898 84.2380222,72.5809356 84.0282938,73.3006369 L74.972084,73.3006369 C74.9609852,73.4338582 74.972084,73.5682279 74.9828,73.7029805 L74.9828,73.7029805 Z M82.5693802,71.9094696 C82.5954049,71.6847544 82.6187506,71.415632 82.5881333,71.0343435 C82.4560963,69.4429615 81.4461086,68.052177 79.449479,68.052177 C77.163516,68.052177 75.5794543,69.7783116 75.1037383,71.9094696 L82.5693802,71.9094696 Z" id="Fill-15" fill="#003770"></path>
                    <path d="M84.7925012,75.4748238 C84.5777975,72.8731803 86.6226494,71.2810326 89.6036247,71.2810326 C91.1501802,71.2810326 92.6332049,71.5949448 93.7580074,71.9084743 L93.8215383,71.5949448 C93.8858346,71.2810326 93.8965506,70.8771577 93.8724395,70.5632454 C93.7492049,69.0836468 92.6488963,68.231107 90.5634765,68.231107 C89.3307481,68.231107 88.3398963,68.4562051 87.3406247,68.836728 L86.9073901,67.3793329 C88.0352543,66.9310509 89.2017728,66.6619285 90.7035506,66.6619285 C93.6179333,66.6619285 95.3661802,68.0297438 95.5517975,70.2723023 C95.5896864,70.7435535 95.5491185,71.3262053 95.456884,71.8652156 L94.2490321,78.4344039 L92.5459457,78.4344039 L92.8666617,76.6179238 C91.9148469,77.8506037 90.5485506,78.6809399 88.7092173,78.6809399 C86.759279,78.6809399 84.9624272,77.5366914 84.7925012,75.4748238 M93.4047605,73.8826761 L93.5616741,73.0753091 C92.5298716,72.8065696 91.2114148,72.5596508 89.7754642,72.5596508 C87.7359704,72.5596508 86.4163654,73.6805473 86.5461062,75.2723121 C86.6479086,76.5057576 87.6563654,77.3138903 89.1577605,77.3138903 C91.1076988,77.3138903 93.0117111,75.922723 93.4047605,73.8826761" id="Fill-17" fill="#003770"></path>
                    <path d="M48.2963926,75.4748238 C48.0824543,72.8731803 50.1269235,71.2810326 53.1086642,71.2810326 C54.6556025,71.2810326 56.137479,71.5949448 57.261516,71.9084743 L57.3265778,71.5949448 C57.3904914,71.2810326 57.400442,70.8771577 57.3759481,70.5632454 C57.2538617,69.0836468 56.1531704,68.231107 54.0677506,68.231107 C52.8354049,68.231107 51.8453185,68.4562051 50.8456642,68.836728 L50.4112815,67.3793329 C51.5399111,66.9310509 52.7064296,66.6619285 54.2085901,66.6619285 C57.1229728,66.6619285 58.8716025,68.0297438 59.0556889,70.2723023 C59.0939605,70.7435535 59.0522444,71.3262053 58.9619235,71.8652156 L57.7536889,78.4344039 L56.0490716,78.4344039 L56.3717012,76.6179238 C55.419121,77.8506037 54.0528247,78.6809399 52.2146395,78.6809399 C50.2639358,78.6809399 48.4663185,77.5366914 48.2963926,75.4748238 M56.9082691,73.8826761 L57.0670963,73.0753091 C56.0349111,72.8065696 54.7160716,72.5596508 53.2797383,72.5596508 C51.2402444,72.5596508 49.9198741,73.6805473 50.050763,75.2723121 C50.1525654,76.5057576 51.1610222,77.3138903 52.6624173,77.3138903 C54.6127383,77.3138903 56.5159852,75.922723 56.9082691,73.8826761" id="Fill-19" fill="#003770"></path>
                    <path d="M95.4487704,76.6629052 L96.4771284,75.5420087 C97.8323259,76.7528678 99.2617704,77.2463226 100.65256,77.2463226 C101.975227,77.2463226 103.145573,76.4833627 103.049511,75.3172935 C102.987894,74.5558648 102.425684,73.9950338 100.690832,73.3450057 C98.538437,72.5361074 97.2892519,71.7742959 97.1553012,70.1595619 C96.9937951,68.1868913 98.5671407,66.5955093 101.256104,66.5955093 C102.960721,66.5955093 104.636635,67.3573207 105.669585,68.1868913 L104.758338,69.3755469 C103.729598,68.5903834 102.472375,68.0299352 101.217832,68.0299352 C99.5821037,68.0299352 98.7795481,68.9039129 98.8583877,69.8686188 C98.9207704,70.6319616 99.4328444,71.1250335 101.329202,71.842055 C103.484277,72.6934463 104.628598,73.5233997 104.751449,75.0252019 C104.927881,77.1789463 103.07898,78.6807485 100.612758,78.6807485 C98.8216469,78.6807485 96.9046222,78.0085168 95.4487704,76.6629052" id="Fill-21" fill="#003770"></path>
                    <g id="Group-25" transform="translate(0.000000, 61.349155)">
                        <mask id="mask-6" fill="white">
                            <use xlink:href="#path-5"></use>
                        </mask>
                        <g id="Clip-24"></g>
                        <path d="M41.243242,9.46097097 C42.4595136,8.86338922 43.7117605,7.77082143 43.7117605,5.25416387 C43.7117605,4.07967264 43.2988099,3.00739429 42.5819827,2.17399553 C41.470958,0.880447325 39.5830198,0.221997219 37.130958,0.221997219 L26.9334889,0.221997219 L24.3646988,3.43385558 L37.6969951,3.43385558 C38.6687111,3.43385558 38.9538346,3.71446252 39.1857605,4.06971932 C39.4861926,4.52412646 39.4528963,5.12477077 39.329279,5.74187633 C39.0717111,7.02853378 38.3812914,7.50629292 37.4206741,7.50629292 L35.8618716,7.50629292 C35.9701802,7.04499503 36.4229333,5.13242717 36.4229333,5.13242717 L31.449921,5.13242717 L29.2630815,14.5214663 L28.5141062,14.5214663 C27.7494395,14.5214663 27.6185506,14.1045755 27.7563284,13.5284317 C28.4934395,10.4417554 29.7269333,5.12132539 29.7269333,5.12132539 L23.0271062,5.12132539 C23.0271062,5.12132539 19.9749457,8.94952368 19.0231309,10.1339682 C19.3974272,8.50928088 21.3508099,0.221997219 21.3508099,0.221997219 L15.9962296,0.221997219 C15.1994148,2.67510668 12.9838716,7.3416804 11.2478716,9.46288507 C9.85019259,11.1706443 8.3457358,12.28465 6.77927901,12.7788704 C3.91235309,13.6777314 1.20501975,11.8398134 1.20501975,11.8398134 L-0.000153086419,16.995248 L0.211871605,17.0553507 C2.77147654,17.804912 5.1527358,17.9373676 7.28484691,17.4481239 C8.99558765,17.0549679 10.5490321,16.2632965 11.9038469,15.0968445 C12.9823407,14.1681236 13.7504519,13.1666669 14.2728593,12.3466668 C13.7959951,14.3204859 12.9693284,17.7375357 12.9693284,17.7375357 L15.2774889,17.7375357 C18.0288346,17.7375357 18.9018099,16.9695991 20.8548099,14.5272086 C20.8548099,14.5272086 22.857563,11.9944726 23.2464025,11.5125024 C23.1105383,12.0985996 22.9153531,13.0016716 22.6267852,14.2588519 C22.0906,16.5867793 23.3742296,17.7375357 25.8423654,17.7375357 L33.4817605,17.7375357 C33.4817605,17.7375357 35.0306123,11.0703455 35.1113654,10.7304015 L37.2802173,10.7304015 C39.0896988,10.7304015 38.8041926,12.3282915 38.6916741,12.8875913 C38.4187975,14.2542581 37.4838222,14.515724 36.5966864,14.515724 L34.8874765,14.515724 L35.6215259,17.7375357 L39.3208593,17.7375357 C40.5183778,17.7375357 43.6887975,17.1020548 43.6887975,13.240934 C43.6887975,11.4336416 42.5437111,10.16 41.243242,9.46097097" id="Fill-23" fill="#003770" mask="url(#mask-6)"></path>
                    </g>
                    <path d="M74.9828,73.7029805 C75.1565531,75.8115521 76.6147012,77.2011881 78.7670963,77.2011881 C80.2692568,77.2011881 81.2359975,76.6859126 82.2180469,75.8341385 L83.2104296,76.9776213 C82.1457136,77.9419445 80.8406519,78.7045216 78.8019235,78.7045216 C75.729479,78.7045216 73.5039852,76.7081162 73.2624914,73.7695912 C72.9720099,70.2277421 75.5411827,66.5951648 79.4188617,66.5951648 C82.3569728,66.5951648 84.0700099,68.6141565 84.2690222,71.0343435 C84.3329358,71.8198898 84.2380222,72.5809356 84.0282938,73.3006369 L74.972084,73.3006369 C74.9609852,73.4338582 74.972084,73.5682279 74.9828,73.7029805 L74.9828,73.7029805 Z M82.5693802,71.9094696 C82.5954049,71.6847544 82.6187506,71.415632 82.5881333,71.0343435 C82.4560963,69.4429615 81.4461086,68.052177 79.449479,68.052177 C77.163516,68.052177 75.5794543,69.7783116 75.1037383,71.9094696 L82.5693802,71.9094696 Z" id="Fill-26" fill="#003770"></path>
                    <path d="M84.7925012,75.4748238 C84.5777975,72.8731803 86.6226494,71.2810326 89.6036247,71.2810326 C91.1501802,71.2810326 92.6332049,71.5949448 93.7580074,71.9084743 L93.8215383,71.5949448 C93.8858346,71.2810326 93.8965506,70.8771577 93.8724395,70.5632454 C93.7492049,69.0836468 92.6488963,68.231107 90.5634765,68.231107 C89.3307481,68.231107 88.3398963,68.4562051 87.3406247,68.836728 L86.9073901,67.3793329 C88.0352543,66.9310509 89.2017728,66.6619285 90.7035506,66.6619285 C93.6179333,66.6619285 95.3661802,68.0297438 95.5517975,70.2723023 C95.5896864,70.7435535 95.5491185,71.3262053 95.456884,71.8652156 L94.2490321,78.4344039 L92.5459457,78.4344039 L92.8666617,76.6179238 C91.9148469,77.8506037 90.5485506,78.6809399 88.7092173,78.6809399 C86.759279,78.6809399 84.9624272,77.5366914 84.7925012,75.4748238 M93.4047605,73.8826761 L93.5616741,73.0753091 C92.5298716,72.8065696 91.2114148,72.5596508 89.7754642,72.5596508 C87.7359704,72.5596508 86.4163654,73.6805473 86.5461062,75.2723121 C86.6479086,76.5057576 87.6563654,77.3138903 89.1577605,77.3138903 C91.1076988,77.3138903 93.0117111,75.922723 93.4047605,73.8826761" id="Fill-28" fill="#003770"></path>
                    <path d="M48.2963926,75.4748238 C48.0824543,72.8731803 50.1269235,71.2810326 53.1086642,71.2810326 C54.6556025,71.2810326 56.137479,71.5949448 57.261516,71.9084743 L57.3265778,71.5949448 C57.3904914,71.2810326 57.400442,70.8771577 57.3759481,70.5632454 C57.2538617,69.0836468 56.1531704,68.231107 54.0677506,68.231107 C52.8354049,68.231107 51.8453185,68.4562051 50.8456642,68.836728 L50.4112815,67.3793329 C51.5399111,66.9310509 52.7064296,66.6619285 54.2085901,66.6619285 C57.1229728,66.6619285 58.8716025,68.0297438 59.0556889,70.2723023 C59.0939605,70.7435535 59.0522444,71.3262053 58.9619235,71.8652156 L57.7536889,78.4344039 L56.0490716,78.4344039 L56.3717012,76.6179238 C55.419121,77.8506037 54.0528247,78.6809399 52.2146395,78.6809399 C50.2639358,78.6809399 48.4663185,77.5366914 48.2963926,75.4748238 M56.9082691,73.8826761 L57.0670963,73.0753091 C56.0349111,72.8065696 54.7160716,72.5596508 53.2797383,72.5596508 C51.2402444,72.5596508 49.9198741,73.6805473 50.050763,75.2723121 C50.1525654,76.5057576 51.1610222,77.3138903 52.6624173,77.3138903 C54.6127383,77.3138903 56.5159852,75.922723 56.9082691,73.8826761" id="Fill-30" fill="#003770"></path>
                    <path d="M95.4487704,76.6629052 L96.4771284,75.5420087 C97.8323259,76.7528678 99.2617704,77.2463226 100.65256,77.2463226 C101.975227,77.2463226 103.145573,76.4833627 103.049511,75.3172935 C102.987894,74.5558648 102.425684,73.9950338 100.690832,73.3450057 C98.538437,72.5361074 97.2892519,71.7742959 97.1553012,70.1595619 C96.9937951,68.1868913 98.5671407,66.5955093 101.256104,66.5955093 C102.960721,66.5955093 104.636635,67.3573207 105.669585,68.1868913 L104.758338,69.3755469 C103.729598,68.5903834 102.472375,68.0299352 101.217832,68.0299352 C99.5821037,68.0299352 98.7795481,68.9039129 98.8583877,69.8686188 C98.9207704,70.6319616 99.4328444,71.1250335 101.329202,71.842055 C103.484277,72.6934463 104.628598,73.5233997 104.751449,75.0252019 C104.927881,77.1789463 103.07898,78.6807485 100.612758,78.6807485 C98.8216469,78.6807485 96.9046222,78.0085168 95.4487704,76.6629052" id="Fill-32" fill="#003770"></path>
                    <path d="M116.618862,66.841739 L118.344911,66.841739 L116.1818,78.4342891 L114.455751,78.4342891 L116.618862,66.841739 Z M117.204417,62.7160897 L119.176553,62.7160897 L118.818714,64.6210012 L116.845047,64.6210012 L117.204417,62.7160897 Z" id="Fill-34" fill="#003770"></path>
                    <path d="M129.101796,73.7029805 C129.276315,75.8115521 130.735994,77.2011881 132.887623,77.2011881 C134.388636,77.2011881 135.355759,76.6859126 136.340105,75.8341385 L137.330191,76.9776213 C136.266241,77.9419445 134.961562,78.7045216 132.919772,78.7045216 C129.850772,78.7045216 127.623364,76.7081162 127.382636,73.7695912 C127.090623,70.2277421 129.662093,66.5951648 133.540154,66.5951648 C136.476735,66.5951648 138.190537,68.6141565 138.389167,71.0343435 C138.452698,71.8198898 138.358932,72.5809356 138.148056,73.3006369 L129.091463,73.3006369 C129.079599,73.4338582 129.091463,73.5682279 129.101796,73.7029805 L129.101796,73.7029805 Z M136.69029,71.9094696 C136.716315,71.6847544 136.738895,71.415632 136.707895,71.0343435 C136.577389,69.4429615 135.565488,68.052177 133.570006,68.052177 C131.28366,68.052177 129.699216,69.7783116 129.225031,71.9094696 L136.69029,71.9094696 Z" id="Fill-36" fill="#003770"></path>
                    <polygon id="Fill-38" fill="#003770" points="113.301326 62.7159749 115.072536 62.7159749 112.195659 78.4150332 110.37661 78.4123535"></polygon>
                    <path d="M128.516509,63.847016 L128.827657,62.2774547 C126.829879,62.1989767 125.22936,62.6281177 124.056336,63.7333186 C122.856138,64.8645511 122.62957,66.0003776 122.485669,66.8406671 L119.592336,66.8406671 L119.314101,68.3665869 L122.258719,68.3665869 L120.372694,78.4347484 L122.100274,78.4347484 L123.986299,68.3665869 L127.751842,68.3665869 L128.051126,66.8406671 L124.202916,66.8406671 C124.33304,66.2243272 124.438286,65.6160265 125.187262,64.9173803 C125.972595,64.182749 127.094336,63.8248125 128.516509,63.847016" id="Fill-40" fill="#003770"></path>
                    <g id="Group-44" transform="translate(59.703704, 66.325813)">
                        <mask id="mask-8" fill="white">
                            <use xlink:href="#path-7"></use>
                        </mask>
                        <g id="Clip-43"></g>
                        <path d="M10.7973383,6.2671817 C10.7016593,6.93826486 10.4865728,7.54465147 10.1516963,8.08519307 C9.81643704,8.62535185 9.41037531,9.08856384 8.93427654,9.47291495 C8.45970864,9.85764888 7.93538765,10.157014 7.36093086,10.369479 C6.78647407,10.5823268 6.20474568,10.6891335 5.61498025,10.6891335 C5.00837531,10.6891335 4.46951111,10.5696938 3.99723951,10.3323455 C3.5249679,10.0957628 3.13459753,9.77610825 2.82459753,9.37414743 C2.51536296,8.97371789 2.30219012,8.50706052 2.18775802,7.97455814 C2.07217778,7.44167294 2.06720247,6.87395113 2.17704198,6.2671817 C2.28688148,5.66117791 2.50005432,5.09307329 2.81847407,4.56018808 C3.1361284,4.02883416 3.52573333,3.56064551 3.98575802,3.15906751 C4.44578272,2.75940361 4.95517778,2.43936623 5.51394321,2.20163512 C6.07309136,1.96466964 6.65520247,1.8459955 7.26104198,1.8459955 C7.93270864,1.8459955 8.51749877,1.96466964 9.01349877,2.20163512 C9.51064691,2.43936623 9.91020247,2.75940361 10.2121654,3.15906751 C10.5141284,3.56064551 10.7135235,4.02883416 10.8126469,4.56018808 C10.9113877,5.09307329 10.9060296,5.66117791 10.7973383,6.2671817 L10.7973383,6.2671817 Z M11.7839802,0.666910424 L11.4288198,2.58254085 L11.3794494,2.58254085 C11.1199679,2.14076677 10.8294864,1.77593947 10.5068568,1.4888246 C10.1842272,1.20285818 9.8466716,0.977760125 9.49380741,0.813147599 C9.13979506,0.649300712 8.77736296,0.535603223 8.40306667,0.468992572 C8.0295358,0.405061661 7.67131358,0.370990696 7.32763457,0.370990696 C6.47647407,0.370990696 5.66702963,0.523735808 4.90006667,0.826546293 C4.13348642,1.12935678 3.44344938,1.55084141 2.83033827,2.09100019 C2.21760988,2.63192461 1.69252346,3.26204604 1.26005432,3.98213014 C0.826437037,4.70374552 0.533659259,5.48125259 0.383634568,6.31503418 C0.230548148,7.15149551 0.244708642,7.92976822 0.425350617,8.6494695 C0.605992593,9.37070206 0.918671605,9.98895608 1.36262222,10.5042316 C1.80580741,11.0202727 2.36533827,11.4252961 3.03968395,11.7215986 C3.71441235,12.0156043 4.46874568,12.1629899 5.3038321,12.1629899 C6.13815309,12.1629899 6.96443704,11.9987602 7.7815358,11.6722149 C8.59748642,11.3441383 9.33536296,10.7875182 9.9921037,10.0008235 L10.0414741,10.0008235 L9.78964691,11.4712345 C9.6629679,12.0933167 9.59407901,12.6889843 9.34072099,13.237948 C9.08621481,13.7865288 8.88949877,14.0169863 8.46123951,14.4254551 C8.0341284,14.8346895 7.51133827,15.1589379 6.89593086,15.3959033 C6.27937531,15.6340173 5.5614,15.7523086 4.74315309,15.7523086 C3.80932593,15.7523086 2.99605432,15.5601331 2.30104198,15.1753991 C1.87393086,14.9395821 1.51417778,14.6555298 1.21757284,14.3232422 L0.458646914,16.084979 C1.50001728,16.8452592 2.80699259,17.2269306 4.38301728,17.2269306 C5.67621481,17.2269306 6.76159753,17.0293956 7.63763457,16.6366224 C8.51481975,16.2438493 9.18495556,15.8721312 9.7441037,15.2833543 C10.3021037,14.6926633 10.6320049,14.1570984 10.9186593,13.4538584 C11.2034,12.7494699 11.338116,11.8513745 11.4659432,11.2292923 L13.4047827,0.666910424 L11.7839802,0.666910424 Z" id="Fill-42" fill="#003770" mask="url(#mask-8)"></path>
                    </g>
                    <path d="M129.899759,33.2979171 C130.07887,34.4283841 130.017636,35.4191218 129.394957,35.6170397 C128.773043,35.8145747 128.034784,34.8456577 127.645562,34.014173 C127.645562,34.014173 118.557969,14.9727147 118.038241,13.8812954 C117.519278,12.7898761 119.127451,11.028522 121.362895,10.3180084 C123.597957,9.60826047 125.92908,10.1518646 126.132685,11.3095118 C126.336673,12.4679246 129.899759,33.2979171 129.899759,33.2979171" id="Fill-45" fill="#D6311F"></path>
                    <path d="M127.030116,35.5699528 C127.837647,35.8333329 128.471807,36.2084963 128.392202,36.6870211 C128.312598,37.1655459 127.422783,37.3259474 126.741931,37.3025954 C126.741931,37.3025954 108.172931,36.6207932 107.222264,36.5939959 C106.271598,36.5671985 105.614091,34.8096726 105.91682,32.9893643 C106.219548,31.1686732 107.434672,29.7296535 108.318746,30.0018384 C109.20282,30.2728748 127.030116,35.5699528 127.030116,35.5699528" id="Fill-47" fill="#5BC5F2"></path>
                    <path d="M132.443673,35.2652665 C131.409574,35.6025308 130.598981,36.0818212 130.700401,36.6935673 C130.802204,37.306079 131.940784,37.5112704 132.811846,37.4814105 C132.811846,37.4814105 151.800685,37.2681799 153.016957,37.2337261 C154.232463,37.1996551 155.073673,34.9513542 154.686747,32.623044 C154.299056,30.294351 152.744846,28.4541361 151.61392,28.8013537 C150.482994,29.1489541 132.443673,35.2652665 132.443673,35.2652665" id="Fill-49" fill="#003770"></path>
                    <path d="M127.072751,39.2076982 C127.626923,38.6143275 128.208269,38.2158121 128.59022,38.4776608 C128.972553,38.7402752 128.752874,39.5759709 128.457417,40.1570914 C128.457417,40.1570914 120.371393,55.9786521 119.964565,56.7913786 C119.557738,57.6044879 117.769306,57.4651415 116.31422,56.4678959 C114.859516,55.4706502 114.103269,53.8360095 114.695714,53.1794735 C115.287775,52.5225547 127.072751,39.2076982 127.072751,39.2076982" id="Fill-51" fill="#003770"></path>
                    <path d="M132.78938,33.6863261 C132.180862,34.1736558 131.573874,34.4711068 131.246652,34.1694447 C130.919812,33.8673999 131.244738,33.1032915 131.606022,32.5933755 C131.606022,32.5933755 141.478948,18.6912734 141.978393,17.9757832 C142.477454,17.2599101 144.156047,17.640433 145.399491,18.7896581 C146.642936,19.9388832 147.134343,21.5949618 146.480664,22.1370347 C145.826985,22.6783419 132.78938,33.6863261 132.78938,33.6863261" id="Fill-53" fill="#EB84AB"></path>
                    <path d="M134.092452,39.8912613 C133.683328,39.5532314 133.401267,39.1899354 133.557032,38.9303836 C133.712798,38.6704489 134.266205,38.7814666 134.656193,38.9510558 C134.656193,38.9510558 145.280773,43.6011683 145.826909,43.8346884 C146.373044,44.0678257 146.351612,45.2392543 145.759168,46.2269295 C145.167106,47.2146047 144.131477,47.7712247 143.680637,47.4109912 C143.229415,47.0507578 134.092452,39.8912613 134.092452,39.8912613" id="Fill-55" fill="#5BC5F2"></path>
                    <path d="M125.244363,38.2313928 C125.643153,38.0920464 126.007116,38.0484049 126.1204,38.2620184 C126.233301,38.4752491 125.929425,38.8071538 125.652721,39.0035404 C125.652721,39.0035404 118.104412,44.3385176 117.720165,44.6149135 C117.336301,44.8909266 116.546375,44.3947921 116.116585,43.583214 C115.687178,42.771636 115.733486,41.8360243 116.16519,41.6763885 C116.596894,41.5175182 125.244363,38.2313928 125.244363,38.2313928" id="Fill-57" fill="#EB84AB"></path>
                    <path d="M130.342064,40.7070121 C129.902706,39.7254621 129.714793,38.8120539 130.230311,38.4797663 C130.746212,38.1474787 131.654015,38.8457421 132.210867,39.5038094 C132.210867,39.5038094 147.362212,57.4921303 148.145249,58.4063041 C148.928286,59.320095 147.84099,61.4313464 145.876891,62.6954174 C143.913941,63.9594885 141.531916,64.0440917 141.035151,62.9840636 C140.538002,61.9244183 130.342064,40.7070121 130.342064,40.7070121" id="Fill-59" fill="#DD0071"></path>
                </g>
            </g>
        </g>
    </g>
</svg>